<?xml version="1.0" encoding="iso-8859-1"?>
<!-- Generator: Adobe Illustrator 19.0.0, SVG Export Plug-In . SVG Version: 6.00 Build 0)  -->
<svg version="1.1" id="Layer_1" xmlns="http://www.w3.org/2000/svg" xmlns:xlink="http://www.w3.org/1999/xlink" x="0px" y="0px"
	 viewBox="0 0 91.41 91.41" style="enable-background:new 0 0 91.41 91.41;" xml:space="preserve">
<g>
	<g>
		<g>
			<path d="M26,69.966c-0.085,0-0.172-0.007-0.259-0.022c-0.816-0.142-1.363-0.918-1.221-1.735
				c0.248-1.427,6.248-35.051,21.551-42.647c0.548-0.271,1.203-0.184,1.661,0.22c0.457,0.404,0.624,1.045,0.422,1.621
				c-0.282,0.821-6.625,20.452,21.578,39.827c0.683,0.469,0.856,1.403,0.387,2.086c-0.47,0.682-1.402,0.856-2.086,0.387
				C44.825,53.758,43.687,37.288,44.548,30.104C32.637,39.733,27.53,68.412,27.476,68.723C27.349,69.452,26.716,69.966,26,69.966z"
				/>
		</g>
	</g>
	<g>
		<g>
			<g>
				<path style="fill:#A8D626;" d="M46.251,27.115c0,0-8.463-27.581-37.758-20.095C8.494,7.02,17.903,36.292,46.251,27.115z"/>
			</g>
			<g>
				<path d="M35.749,30.883c-0.001,0-0.002,0-0.003,0c-8.744,0-16.486-4.226-22.389-11.757C8.957,13.511,7.14,7.834,7.066,7.601
					L6.578,6.022l1.544-0.425c3.467-0.886,6.832-1.35,10.002-1.35c22.414,0,29.493,22.211,29.562,22.436l0.433,1.408l-1.405,0.696
					C42.913,30.018,39.224,30.883,35.749,30.883z M10.51,8.329c2.019,4.808,9.421,19.554,25.236,19.554c0.001,0,0.002,0,0.003,0
					c2.711,0,5.583-0.666,8.555-1.502c-1.85-4.649-8.931-18.906-26.181-18.906C15.704,7.475,13.149,7.762,10.51,8.329z"/>
			</g>
		</g>
		<g>
			<g>
				<path style="fill:#A8D626;" d="M46.52,27.825c0,0,3.688-28.614,33.825-26.178C80.345,1.647,76.012,32.086,46.52,27.825z"/>
			</g>
			<g>
				<path d="M51.99,29.734c-1.823,0-3.736-0.143-5.685-0.424l-1.462-0.211l0.189-1.465C45.068,27.357,48.916,0,76.784,0
					c1.195,0,2.433,0.051,3.682,0.152l1.589,0.128L81.83,1.858C81.79,2.137,77.564,29.734,51.99,29.734z M48.27,26.533
					c1.273,0.134,2.519,0.201,3.72,0.201c19.57,0,25.264-18.131,26.549-23.696C77.946,3.013,77.359,3,76.784,3
					C54.839,3,49.405,21.108,48.27,26.533z"/>
			</g>
		</g>
	</g>
	<g>
		<g>
			<g>
				<circle style="fill:#FF5A58;" cx="21.821" cy="74.527" r="15.383"/>
			</g>
			<g>
				<path d="M21.819,91.41c-9.308,0-16.881-7.574-16.881-16.883s7.573-16.882,16.881-16.882c9.31,0,16.884,7.573,16.884,16.882
					S31.129,91.41,21.819,91.41z M21.819,60.646c-7.654,0-13.881,6.228-13.881,13.882c0,7.655,6.227,13.883,13.881,13.883
					c7.656,0,13.884-6.228,13.884-13.883S29.475,60.646,21.819,60.646z"/>
			</g>
		</g>
		<g>
			<g>
				<path style="fill:#FF5A58;" d="M10.476,75.849c0-6.995,5.67-12.666,12.665-12.666"/>
			</g>
			<g>
				<path d="M10.476,77.349c-0.829,0-1.5-0.671-1.5-1.5c0-7.811,6.354-14.166,14.165-14.166c0.829,0,1.5,0.671,1.5,1.5
					c0,0.829-0.671,1.5-1.5,1.5c-6.156,0-11.165,5.009-11.165,11.166C11.976,76.677,11.305,77.349,10.476,77.349z"/>
			</g>
		</g>
	</g>
	<g>
		<g>
			<g>
				<circle style="fill:#FF5A58;" cx="69.59" cy="74.527" r="15.383"/>
			</g>
			<g>
				<path d="M69.59,91.41c-9.31,0-16.883-7.574-16.883-16.883s7.574-16.882,16.883-16.882s16.882,7.573,16.882,16.882
					S78.899,91.41,69.59,91.41z M69.59,60.646c-7.655,0-13.883,6.228-13.883,13.882c0,7.655,6.228,13.883,13.883,13.883
					c7.654,0,13.882-6.228,13.882-13.883S77.245,60.646,69.59,60.646z"/>
			</g>
		</g>
		<g>
			<g>
				<path style="fill:#FF5A58;" d="M58.245,75.849c0-6.995,5.671-12.666,12.667-12.666"/>
			</g>
			<g>
				<path d="M58.245,77.349c-0.829,0-1.5-0.671-1.5-1.5c0-7.811,6.355-14.166,14.167-14.166c0.829,0,1.5,0.671,1.5,1.5
					c0,0.829-0.671,1.5-1.5,1.5c-6.158,0-11.167,5.009-11.167,11.166C59.745,76.677,59.073,77.349,58.245,77.349z"/>
			</g>
		</g>
	</g>
</g>
<g>
</g>
<g>
</g>
<g>
</g>
<g>
</g>
<g>
</g>
<g>
</g>
<g>
</g>
<g>
</g>
<g>
</g>
<g>
</g>
<g>
</g>
<g>
</g>
<g>
</g>
<g>
</g>
<g>
</g>
</svg>
