<?xml version="1.0" encoding="iso-8859-1"?>
<!-- Generator: Adobe Illustrator 19.0.0, SVG Export Plug-In . SVG Version: 6.00 Build 0)  -->
<svg version="1.1" id="Layer_1" xmlns="http://www.w3.org/2000/svg" xmlns:xlink="http://www.w3.org/1999/xlink" x="0px" y="0px"
	 viewBox="0 0 99.216 99.216" style="enable-background:new 0 0 99.216 99.216;" xml:space="preserve">
<g>
	<g>
		<g>
			<path style="fill:#9D2C23;" d="M59.035,25.424c5.779-8.986,14.167-18.778,14.167-18.778c-7.63-3.726-17.922,7.807-17.922,7.807
				C50.312,9.84,51.908,1.501,51.908,1.501c-8.517,5.5-8.517,13.662-8.517,13.662c-5.5-5.145-18.572-3.372-18.572-3.372
				c5.297,1.581,10.317,7.963,14.036,14.008c-15.056,4.599-26.009,18.597-26.009,35.158c0,20.302,36.761,36.759,36.761,36.759
				s36.76-16.458,36.76-36.759C86.367,43.915,74.767,29.587,59.035,25.424z"/>
		</g>
		<g>
			<path d="M49.607,99.216c-0.209,0-0.418-0.043-0.613-0.131c-1.537-0.689-37.647-17.097-37.647-38.129
				c0-16.287,10.054-30.507,25.218-35.975c-4.292-6.601-8.482-10.651-12.174-11.753c-0.678-0.202-1.121-0.849-1.067-1.554
				c0.055-0.705,0.594-1.275,1.294-1.37c0.093-0.013,2.312-0.309,5.329-0.309c3.785,0,8.674,0.475,12.295,2.502
				c0.691-3.109,2.747-8.314,8.853-12.258c0.503-0.325,1.153-0.319,1.652,0.017c0.497,0.336,0.747,0.936,0.635,1.525
				c-0.013,0.067-1.145,6.352,1.933,10.472c2.496-2.469,8.62-7.85,14.585-7.85c1.414,0,2.747,0.301,3.961,0.894
				c0.417,0.204,0.717,0.589,0.811,1.043c0.094,0.455-0.027,0.927-0.329,1.28c-0.078,0.091-7.37,8.627-12.941,16.934
				c15.685,5.068,26.467,19.751,26.467,36.401c0,21.032-36.109,37.44-37.646,38.129C50.025,99.173,49.816,99.216,49.607,99.216z
				 M30.163,12.996c3.253,2.502,6.589,6.521,9.97,12.017c0.244,0.396,0.29,0.882,0.126,1.316c-0.164,0.435-0.521,0.768-0.965,0.904
				c-14.922,4.558-24.948,18.111-24.948,33.724c0,17.701,30.52,32.858,35.261,35.105c4.741-2.247,35.26-17.404,35.26-35.105
				c0-15.982-10.78-29.998-26.216-34.083c-0.464-0.123-0.841-0.46-1.015-0.907s-0.123-0.951,0.137-1.354
				c4.313-6.706,10.118-13.919,12.808-17.172c-0.223-0.023-0.45-0.035-0.682-0.035c-6.23,0-13.429,7.967-13.501,8.048
				c-0.268,0.3-0.646,0.48-1.049,0.499c-0.385,0.01-0.795-0.125-1.09-0.399c-3.388-3.146-4.083-7.695-4.1-10.824
				C44.96,9.483,44.89,15.1,44.89,15.165c0,0.598-0.354,1.138-0.903,1.376c-0.545,0.238-1.184,0.129-1.621-0.281
				C40.146,14.181,35.817,13.025,30.163,12.996z"/>
		</g>
	</g>
	<g>
		<g>
			<path style="fill:#9D2C23;" d="M50.158,97.185c0,0,14.595-13.621,20.913-30.132c5.856-15.302,3.348-29.834-12.036-41.63"/>
		</g>
		<g>
			<path d="M50.159,98.685c-0.401,0-0.802-0.16-1.098-0.477c-0.565-0.605-0.532-1.554,0.073-2.12
				c0.143-0.134,14.42-13.59,20.535-29.572c6.096-15.929,2.211-29.355-11.548-39.903c-0.657-0.504-0.781-1.446-0.277-2.103
				c0.503-0.658,1.445-0.782,2.103-0.278c14.937,11.453,19.15,26.04,12.524,43.356C66.102,84.231,51.786,97.714,51.18,98.28
				C50.892,98.552,50.525,98.685,50.159,98.685z"/>
		</g>
	</g>
	<g>
		<g>
			<path style="fill:#9D2C23;" d="M49.288,97.185c0,0-15.487-13.621-21.806-30.132c-5.854-15.302-3.348-29.834,12.037-41.63"/>
		</g>
		<g>
			<path d="M49.287,98.685c-0.352,0-0.705-0.123-0.989-0.374c-0.645-0.566-15.839-14.057-22.217-30.722
				c-6.625-17.317-2.411-31.905,12.525-43.356c0.657-0.504,1.6-0.38,2.104,0.278c0.504,0.657,0.38,1.599-0.277,2.103
				c-13.759,10.548-17.644,23.974-11.55,39.903c6.116,15.98,21.244,29.408,21.395,29.542c0.622,0.547,0.684,1.495,0.136,2.117
				C50.118,98.513,49.704,98.685,49.287,98.685z"/>
		</g>
	</g>
	<g>
		<g>
			<path style="fill:#9D2C23;" d="M50.158,24.198c0,0-6.519,60.342-0.87,72.988"/>
		</g>
		<g>
			<path d="M49.289,98.686c-0.574,0-1.121-0.331-1.37-0.889c-5.748-12.868,0.48-71.28,0.748-73.761
				c0.089-0.824,0.829-1.423,1.652-1.33c0.823,0.089,1.419,0.829,1.33,1.652c-0.064,0.6-6.411,60.081-0.992,72.215
				c0.338,0.756-0.001,1.644-0.758,1.981C49.701,98.644,49.493,98.686,49.289,98.686z"/>
		</g>
	</g>
	<g>
		<g>
			<path d="M60.05,27.722c-0.304,0-0.609-0.091-0.874-0.282c-6.627-4.764-19.695-0.271-19.826-0.225
				c-0.778,0.274-1.637-0.139-1.911-0.92c-0.274-0.782,0.139-1.638,0.921-1.912c0.594-0.208,14.687-5.044,22.566,0.621
				c0.673,0.484,0.826,1.421,0.343,2.094C60.976,27.506,60.516,27.722,60.05,27.722z"/>
		</g>
	</g>
</g>
<g>
</g>
<g>
</g>
<g>
</g>
<g>
</g>
<g>
</g>
<g>
</g>
<g>
</g>
<g>
</g>
<g>
</g>
<g>
</g>
<g>
</g>
<g>
</g>
<g>
</g>
<g>
</g>
<g>
</g>
</svg>
