<?xml version="1.0" encoding="iso-8859-1"?>
<!-- Generator: Adobe Illustrator 19.0.0, SVG Export Plug-In . SVG Version: 6.00 Build 0)  -->
<svg version="1.1" id="Layer_1" xmlns="http://www.w3.org/2000/svg" xmlns:xlink="http://www.w3.org/1999/xlink" x="0px" y="0px"
	 viewBox="0 0 112.376 112.376" style="enable-background:new 0 0 112.376 112.376;" xml:space="preserve">
<g>
	<g>
		<g>
			<path style="fill:#0E4D15;" d="M55.45,24.585c0,0-5.768-13.664,4.159-22.384l3.89,5.232c0,0-7.362,5.731-5.023,17.152
				l-2.371,0.125"/>
		</g>
		<g>
			<path d="M56.184,26.208l-0.1-1.889l-2.017,0.85c-0.062-0.147-6.065-14.769,4.551-24.094L59.841,0l5.736,7.715L64.42,8.617
				c-0.266,0.21-6.587,5.358-4.475,15.667l0.35,1.707L56.184,26.208z M59.424,4.467c-2.933,3.143-4.319,7.184-4.123,12.037
				c0.12,2.959,0.823,5.453,1.233,6.681l0.182-0.009c-1.145-8.541,2.785-13.838,4.78-15.921L59.424,4.467z"/>
		</g>
	</g>
	<g>
		<g>
			<g>
				<ellipse style="fill:#BF4442;" cx="37.28" cy="67.046" rx="21.061" ry="43.83"/>
			</g>
			<g>
				<path d="M37.281,112.376c-12.651,0-22.562-19.911-22.562-45.33s9.91-45.331,22.562-45.331c12.65,0,22.56,19.912,22.56,45.331
					C59.841,92.465,49.931,112.376,37.281,112.376z M37.281,24.714c-10.604,0-19.562,19.385-19.562,42.331
					c0,22.945,8.958,42.33,19.562,42.33c10.602,0,19.56-19.385,19.56-42.33C56.841,44.1,47.883,24.714,37.281,24.714z"/>
			</g>
		</g>
		<g>
			<g>
				<ellipse style="fill:#BF4442;" cx="75.096" cy="67.046" rx="21.061" ry="43.83"/>
			</g>
			<g>
				<path d="M75.096,112.376c-12.65,0-22.56-19.911-22.56-45.33s9.91-45.331,22.56-45.331s22.561,19.912,22.561,45.331
					S87.747,112.376,75.096,112.376z M75.096,24.714c-10.602,0-19.56,19.385-19.56,42.331c0,22.945,8.958,42.33,19.56,42.33
					c10.603,0,19.561-19.385,19.561-42.33S85.699,24.714,75.096,24.714z"/>
			</g>
		</g>
		<g>
			<g>
				<ellipse style="fill:#FF5A58;" cx="56.188" cy="67.046" rx="21.061" ry="43.83"/>
			</g>
			<g>
				<path d="M56.188,112.376c-12.65,0-22.561-19.911-22.561-45.33s9.91-45.331,22.561-45.331S78.75,41.627,78.75,67.046
					C78.749,92.465,68.839,112.376,56.188,112.376z M56.188,24.714c-10.603,0-19.561,19.385-19.561,42.331
					c0,22.945,8.958,42.33,19.561,42.33c10.604,0,19.562-19.385,19.562-42.33C75.749,44.1,66.791,24.714,56.188,24.714z"/>
			</g>
		</g>
	</g>
</g>
<g>
</g>
<g>
</g>
<g>
</g>
<g>
</g>
<g>
</g>
<g>
</g>
<g>
</g>
<g>
</g>
<g>
</g>
<g>
</g>
<g>
</g>
<g>
</g>
<g>
</g>
<g>
</g>
<g>
</g>
</svg>
