<?xml version="1.0" encoding="iso-8859-1"?>
<!-- Generator: Adobe Illustrator 19.0.0, SVG Export Plug-In . SVG Version: 6.00 Build 0)  -->
<svg version="1.1" id="Layer_1" xmlns="http://www.w3.org/2000/svg" xmlns:xlink="http://www.w3.org/1999/xlink" x="0px" y="0px"
	 viewBox="0 0 109.89 109.89" style="enable-background:new 0 0 109.89 109.89;" xml:space="preserve">
<g>
	<g>
		<g>
			<g>
				<circle style="fill:#FF5A58;" cx="54.946" cy="63.569" r="44.821"/>
			</g>
			<g>
				<path d="M54.946,109.89c-25.542,0-46.321-20.779-46.321-46.321c0-25.541,20.779-46.32,46.321-46.32
					c25.541,0,46.32,20.779,46.32,46.32C101.267,89.111,80.487,109.89,54.946,109.89z M54.946,20.249
					c-23.888,0-43.321,19.434-43.321,43.32c0,23.888,19.434,43.321,43.321,43.321s43.32-19.434,43.32-43.321
					C98.267,39.682,78.833,20.249,54.946,20.249z"/>
			</g>
		</g>
		<g>
			<g>
				<path style="fill:#FF5A58;" d="M90.785,62.503c0,20.382-16.522,36.906-36.906,36.906"/>
			</g>
			<g>
				<path d="M53.807,100.909v-3c20,0,35.478-15.572,35.478-35.572h3C92.285,83.337,74.807,100.909,53.807,100.909z"/>
			</g>
		</g>
	</g>
	<g>
		<g>
			<polygon style="fill:#A8D626;" points="66.585,47.929 57.213,37.19 47.487,47.606 48.453,33.388 34.21,33.876 44.948,24.507 
				34.53,14.779 48.75,15.745 48.262,1.499 57.636,12.238 67.361,1.821 66.393,16.041 80.639,15.553 69.9,24.925 80.316,34.651 
				66.098,33.684 			"/>
		</g>
		<g>
			<path d="M66.585,49.429c-0.425,0-0.839-0.181-1.13-0.514l-8.279-9.486l-8.592,9.201c-0.435,0.464-1.111,0.605-1.694,0.353
				c-0.582-0.253-0.942-0.845-0.898-1.478l0.853-12.561l-12.582,0.431c-0.663,0.044-1.215-0.358-1.447-0.948
				c-0.232-0.591-0.069-1.264,0.409-1.681l9.486-8.277l-9.203-8.593c-0.464-0.434-0.606-1.111-0.353-1.694s0.848-0.959,1.478-0.898
				l12.563,0.852L46.763,1.551c-0.021-0.635,0.358-1.214,0.948-1.447c0.587-0.231,1.263-0.07,1.681,0.409L57.673,10l8.592-9.202
				c0.434-0.464,1.108-0.607,1.694-0.352c0.582,0.253,0.942,0.845,0.898,1.478l-0.854,12.563l12.584-0.431
				c0.679-0.029,1.215,0.358,1.447,0.948c0.233,0.591,0.069,1.264-0.409,1.681l-9.486,8.279l9.201,8.592
				c0.464,0.434,0.605,1.111,0.353,1.694c-0.253,0.582-0.856,0.947-1.478,0.898l-12.562-0.853l0.423,12.339
				c0.019,0.096,0.028,0.194,0.028,0.296c0,0.828-0.671,1.5-1.5,1.5C66.599,49.43,66.593,49.429,66.585,49.429z M57.213,35.337
				c0.009,0,0.017,0,0.025,0c0.424,0,0.825,0.371,1.104,0.69l6.599,7.649l-0.343-9.984c-0.015-0.425,0.151-0.813,0.456-1.108
				c0.306-0.296,0.721-0.444,1.145-0.406l10.011,0.686l-7.333-6.845c-0.311-0.29-0.483-0.695-0.477-1.12
				c0.008-0.424,0.194-0.826,0.514-1.104l7.561-6.597l-10.029,0.343c-0.451,0.024-0.835-0.151-1.13-0.456
				c-0.295-0.306-0.447-0.722-0.418-1.145l0.681-10.011l-6.846,7.333c-0.29,0.311-0.717,0.47-1.122,0.477
				c-0.424-0.007-0.825-0.194-1.104-0.514l-6.601-7.562l0.344,10.03c0.015,0.425-0.151,0.835-0.456,1.13
				c-0.307,0.295-0.724,0.453-1.145,0.418l-10.012-0.68l7.335,6.849c0.311,0.29,0.483,0.697,0.477,1.122
				c-0.008,0.424-0.194,0.826-0.514,1.104l-7.56,6.596l10.026-0.343c0.455-0.023,0.835,0.151,1.13,0.456
				c0.295,0.306,0.447,0.722,0.418,1.144l-0.68,10.01l6.847-7.51C56.4,35.685,56.798,35.337,57.213,35.337z"/>
		</g>
	</g>
</g>
<g>
</g>
<g>
</g>
<g>
</g>
<g>
</g>
<g>
</g>
<g>
</g>
<g>
</g>
<g>
</g>
<g>
</g>
<g>
</g>
<g>
</g>
<g>
</g>
<g>
</g>
<g>
</g>
<g>
</g>
</svg>
