<?xml version="1.0" encoding="iso-8859-1"?>
<!-- Generator: Adobe Illustrator 19.0.0, SVG Export Plug-In . SVG Version: 6.00 Build 0)  -->
<svg version="1.1" id="Layer_1" xmlns="http://www.w3.org/2000/svg" xmlns:xlink="http://www.w3.org/1999/xlink" x="0px" y="0px"
	 viewBox="0 0 132.163 132.163" style="enable-background:new 0 0 132.163 132.163;" xml:space="preserve">
<g>
	<g>
		<g>
			<path style="fill:#0E4D15;" d="M97.454,1.543C62.637,2.519,34.709,31.03,34.709,66.081c0,35.053,27.928,63.562,62.745,64.539
				C97.454,130.62,97.454,1.543,97.454,1.543z"/>
		</g>
		<g>
			<path d="M98.954,132.163l-1.542-0.044c-17.255-0.483-33.4-7.566-45.461-19.943C39.865,99.773,33.209,83.403,33.209,66.081
				c0-17.321,6.656-33.691,18.742-46.094C64.012,7.609,80.157,0.527,97.412,0.044L98.954,0V132.163z M95.954,3.105
				c-15.89,0.827-30.701,7.53-41.854,18.976c-11.537,11.839-17.891,27.465-17.891,44s6.354,32.162,17.891,44.001
				c11.153,11.446,25.965,18.149,41.854,18.977C95.954,129.059,95.954,3.105,95.954,3.105z"/>
		</g>
	</g>
	<g>
		<g>
			<path style="fill:#F6F0E8;" d="M97.454,6.438C65.342,7.414,39.605,33.732,39.605,66.081c0,32.35,25.737,58.669,57.849,59.644
				C97.454,125.725,97.454,6.438,97.454,6.438z"/>
		</g>
		<g>
			<path d="M98.954,127.271l-1.545-0.047c-15.946-0.483-30.861-7.058-41.997-18.51C44.251,97.236,38.105,82.096,38.105,66.081
				c0-16.014,6.146-31.154,17.307-42.632C66.547,11.997,81.462,5.423,97.409,4.938l1.545-0.047
				C98.954,4.891,98.954,127.271,98.954,127.271z M95.954,8.004c-14.58,0.825-28.162,7.017-38.391,17.536
				C46.95,36.455,41.105,50.853,41.105,66.081s5.845,29.627,16.458,40.542c10.229,10.52,23.811,16.711,38.391,17.535
				C95.954,124.158,95.954,8.004,95.954,8.004z"/>
		</g>
	</g>
	<g>
		<g>
			<path style="fill:#FF5A58;" d="M97.454,12.965c-28.506,0.972-51.322,24.373-51.322,53.116c0,28.744,22.815,52.145,51.322,53.118
				V12.965z"/>
		</g>
		<g>
			<path d="M98.954,120.751l-1.551-0.053c-29.591-1.011-52.771-25.001-52.771-54.617c0-29.617,23.18-53.606,52.771-54.615
				l1.551-0.053V120.751z M95.954,14.539c-27.221,1.722-48.322,24.07-48.322,51.542c0,27.471,21.101,49.82,48.322,51.544V14.539z"/>
		</g>
	</g>
	<g>
		<g>
			<ellipse cx="82.593" cy="33.326" rx="3.553" ry="1.475"/>
		</g>
	</g>
	<g>
		<g>
			<ellipse cx="82.593" cy="55.226" rx="3.553" ry="1.475"/>
		</g>
	</g>
	<g>
		<g>
			<ellipse cx="82.593" cy="77.126" rx="3.553" ry="1.475"/>
		</g>
	</g>
	<g>
		<g>
			<ellipse cx="82.593" cy="99.027" rx="3.553" ry="1.475"/>
		</g>
	</g>
	<g>
		<g>
			<ellipse cx="68.274" cy="44.275" rx="3.553" ry="1.475"/>
		</g>
	</g>
	<g>
		<g>
			<ellipse cx="68.274" cy="66.176" rx="3.553" ry="1.475"/>
		</g>
	</g>
	<g>
		<g>
			<ellipse cx="68.274" cy="88.077" rx="3.553" ry="1.475"/>
		</g>
	</g>
</g>
<g>
</g>
<g>
</g>
<g>
</g>
<g>
</g>
<g>
</g>
<g>
</g>
<g>
</g>
<g>
</g>
<g>
</g>
<g>
</g>
<g>
</g>
<g>
</g>
<g>
</g>
<g>
</g>
<g>
</g>
</svg>
