<?xml version="1.0" encoding="iso-8859-1"?>
<!-- Generator: Adobe Illustrator 19.0.0, SVG Export Plug-In . SVG Version: 6.00 Build 0)  -->
<svg version="1.1" id="Layer_1" xmlns="http://www.w3.org/2000/svg" xmlns:xlink="http://www.w3.org/1999/xlink" x="0px" y="0px"
	 viewBox="0 0 120.459 120.459" style="enable-background:new 0 0 120.459 120.459;" xml:space="preserve">
<g>
	<g>
		<g>
			<g>
				<g>
					<g>
						<circle style="fill:#FF5A58;" cx="60.229" cy="74.138" r="44.82"/>
					</g>
				</g>
				<g>
					<g>
						<path d="M60.23,120.459c-25.542,0-46.321-20.779-46.321-46.32s20.779-46.32,46.321-46.32c25.541,0,46.32,20.779,46.32,46.32
							S85.771,120.459,60.23,120.459z M60.23,30.818c-23.887,0-43.321,19.434-43.321,43.32s19.434,43.32,43.321,43.32
							s43.32-19.434,43.32-43.32S84.116,30.818,60.23,30.818z"/>
					</g>
				</g>
			</g>
			<g>
				<g>
					<g>
						<path style="fill:#FF5A58;" d="M23.324,74.138c0-20.382,16.522-36.905,36.905-36.905"/>
					</g>
				</g>
				<g>
					<g>
						<path d="M24.824,73.883h-3c0-21,16.806-38.15,38.806-38.15v3C40.63,38.733,24.824,54.883,24.824,73.883z"/>
					</g>
				</g>
			</g>
		</g>
		<g>
			<g>
				<g>
					<g>
						<path style="fill:#A8D626;" d="M62.248,22.242c0,0,2.906-22.544,26.65-20.626C88.899,1.616,85.485,25.6,62.248,22.242z"/>
					</g>
				</g>
				<g>
					<g>
						<path d="M66.559,24.064c-1.452,0-2.974-0.114-4.525-0.338l-1.462-0.211l0.189-1.465C60.789,21.83,63.861,0,86.095,0
							c0.949,0,1.933,0.041,2.925,0.121l1.589,0.128l-0.225,1.578C90.352,2.049,86.982,24.064,66.559,24.064z M64.013,20.942
							c8.745,0.817,15.349-2.444,19.691-9.628c1.942-3.213,2.927-6.436,3.378-8.298C86.749,3.005,86.419,3,86.095,3
							C69.477,3,65.044,16.363,64.013,20.942z"/>
					</g>
				</g>
			</g>
			<g>
				<g>
					<g>
						<path style="fill:#A8D626;" d="M58.21,22.242c0,0-2.906-22.544-26.65-20.626C31.56,1.616,34.974,25.6,58.21,22.242z"/>
					</g>
				</g>
				<g>
					<g>
						<path d="M53.9,24.064L53.9,24.064c-20.423,0-23.793-22.015-23.825-22.237L29.85,0.249l1.589-0.128
							C32.43,0.041,33.415,0,34.364,0C56.597,0,59.67,21.83,59.698,22.05l0.189,1.465l-1.462,0.211
							C56.874,23.95,55.351,24.064,53.9,24.064z M33.379,3.016c0.459,1.883,1.46,5.154,3.425,8.379
							c3.91,6.416,9.662,9.669,17.096,9.669l0,0c0.822,0,1.672-0.041,2.54-0.122C55.397,16.364,50.931,3,34.364,3
							C34.04,3,33.711,3.005,33.379,3.016z"/>
					</g>
				</g>
			</g>
		</g>
	</g>
	<g>
		<g>
			<g>
				<ellipse style="fill:#23292A;" cx="61.897" cy="106.61" rx="2.037" ry="1.745"/>
			</g>
		</g>
	</g>
	<g>
		<g>
			<g>
				<ellipse style="fill:#23292A;" cx="50.374" cy="108.53" rx="2.037" ry="1.745"/>
			</g>
		</g>
	</g>
	<g>
		<g>
			<g>
				<ellipse style="fill:#23292A;" cx="74.38" cy="97.008" rx="2.037" ry="1.745"/>
			</g>
		</g>
	</g>
	<g>
		<g>
			<g>
				<ellipse style="fill:#23292A;" cx="84.942" cy="86.445" rx="2.037" ry="1.745"/>
			</g>
		</g>
	</g>
	<g>
		<g>
			<g>
				<ellipse style="fill:#23292A;" cx="73.42" cy="104.689" rx="2.037" ry="1.745"/>
			</g>
		</g>
	</g>
	<g>
		<g>
			<g>
				<ellipse style="fill:#23292A;" cx="84.942" cy="97.008" rx="2.037" ry="1.745"/>
			</g>
		</g>
	</g>
	<g>
		<g>
			<g>
				<ellipse style="fill:#23292A;" cx="93.584" cy="78.764" rx="2.037" ry="1.745"/>
			</g>
		</g>
	</g>
	<g>
		<g>
			<g>
				<ellipse style="fill:#23292A;" cx="62.857" cy="97.008" rx="2.037" ry="1.745"/>
			</g>
		</g>
	</g>
	<g>
		<g>
			<g>
				<ellipse style="fill:#23292A;" cx="74.38" cy="86.445" rx="2.037" ry="1.745"/>
			</g>
		</g>
	</g>
	<g>
		<g>
			<g>
				<ellipse style="fill:#23292A;" cx="85.902" cy="76.843" rx="2.037" ry="1.745"/>
			</g>
		</g>
	</g>
	<g>
		<g>
			<g>
				<ellipse style="fill:#23292A;" cx="94.544" cy="69.162" rx="2.037" ry="1.745"/>
			</g>
		</g>
	</g>
	<g>
		<g>
			<g>
				<ellipse style="fill:#23292A;" cx="93.584" cy="87.406" rx="2.037" ry="1.745"/>
			</g>
		</g>
	</g>
</g>
<g>
</g>
<g>
</g>
<g>
</g>
<g>
</g>
<g>
</g>
<g>
</g>
<g>
</g>
<g>
</g>
<g>
</g>
<g>
</g>
<g>
</g>
<g>
</g>
<g>
</g>
<g>
</g>
<g>
</g>
</svg>
