<?xml version="1.0" encoding="iso-8859-1"?>
<!-- Generator: Adobe Illustrator 19.0.0, SVG Export Plug-In . SVG Version: 6.00 Build 0)  -->
<svg version="1.1" id="Layer_1" xmlns="http://www.w3.org/2000/svg" xmlns:xlink="http://www.w3.org/1999/xlink" x="0px" y="0px"
	 viewBox="0 0 123 123" style="enable-background:new 0 0 123 123;" xml:space="preserve">
<g>
	<g>
		<g>
			<path style="fill:#F9E41E;" d="M110.512,51.045h-3.488c-5.605-17-24.32-29.139-46.558-29.139
				c-22.234,0-40.947,12.139-46.554,29.139h-2.775C5.396,51.045,1,55.646,1,61.387v0.29c0,5.741,4.396,11.368,10.137,11.368h2.806
				c5.645,16,24.328,29.049,46.523,29.049c22.197,0,40.883-13.049,46.525-29.049h3.521c5.74,0,10.488-5.627,10.488-11.368v-0.29
				C121,55.646,116.252,51.045,110.512,51.045z"/>
		</g>
		<g>
			<path d="M60.466,103.094c-21.216,0-41.017-12.156-47.567-29.049h-1.762C4.892,74.045,0,68.612,0,61.677v-0.29
				c0-6.921,4.892-12.342,11.137-12.342h1.708c6.27-17.21,25.666-29.139,47.621-29.139c21.958,0,41.356,11.929,47.625,29.139h2.421
				c6.652,0,12.488,5.768,12.488,12.342v0.29c0,6.589-5.836,12.368-12.488,12.368h-2.476
				C101.487,90.938,81.686,103.094,60.466,103.094z M11.137,52.045C6.044,52.045,3,56.795,3,61.387v0.29
				c0,4.604,3.044,9.368,8.137,9.368h2.806c0.636,0,1.203,0.401,1.414,1.001c5.735,16.252,24.706,28.048,45.109,28.048
				c20.407,0,39.379-11.796,45.11-28.048c0.212-0.6,0.779-1.001,1.415-1.001h3.521c4.966,0,9.488-4.465,9.488-9.368v-0.29
				c0-4.889-4.523-9.342-9.488-9.342h-3.488c-0.647,0-1.222-0.415-1.425-1.03c-5.457-16.55-24.017-28.108-45.133-28.108
				c-21.113,0-39.671,11.559-45.129,28.108c-0.203,0.615-0.777,1.03-1.425,1.03C13.912,52.045,11.137,52.045,11.137,52.045z"/>
		</g>
	</g>
	<g>
		<g>
			<ellipse cx="31.929" cy="48.29" rx="2.46" ry="1.31"/>
		</g>
	</g>
	<g>
		<g>
			<ellipse cx="50.966" cy="48.29" rx="2.459" ry="1.31"/>
		</g>
	</g>
	<g>
		<g>
			<ellipse cx="70.002" cy="48.29" rx="2.46" ry="1.31"/>
		</g>
	</g>
	<g>
		<g>
			<ellipse cx="89.04" cy="48.29" rx="2.46" ry="1.31"/>
		</g>
	</g>
	<g>
		<g>
			<ellipse cx="40.496" cy="59.712" rx="2.459" ry="1.311"/>
		</g>
	</g>
	<g>
		<g>
			<ellipse cx="59.533" cy="59.712" rx="2.459" ry="1.311"/>
		</g>
	</g>
	<g>
		<g>
			<ellipse cx="78.569" cy="59.712" rx="2.461" ry="1.311"/>
		</g>
	</g>
	<g>
		<g>
			<ellipse cx="40.496" cy="38.771" rx="2.459" ry="1.312"/>
		</g>
	</g>
	<g>
		<g>
			<ellipse cx="59.533" cy="38.771" rx="2.459" ry="1.312"/>
		</g>
	</g>
	<g>
		<g>
			<ellipse cx="78.569" cy="38.771" rx="2.461" ry="1.311"/>
		</g>
	</g>
	<g>
		<g>
			<ellipse cx="31.929" cy="71.133" rx="2.46" ry="1.312"/>
		</g>
	</g>
	<g>
		<g>
			<ellipse cx="50.966" cy="71.133" rx="2.459" ry="1.312"/>
		</g>
	</g>
	<g>
		<g>
			<ellipse cx="70.002" cy="71.133" rx="2.46" ry="1.312"/>
		</g>
	</g>
	<g>
		<g>
			<ellipse cx="89.04" cy="71.133" rx="2.46" ry="1.312"/>
		</g>
	</g>
	<g>
		<g>
			<ellipse cx="40.496" cy="84.46" rx="2.459" ry="1.309"/>
		</g>
	</g>
	<g>
		<g>
			<ellipse cx="59.533" cy="84.46" rx="2.459" ry="1.309"/>
		</g>
	</g>
	<g>
		<g>
			<ellipse cx="78.569" cy="84.46" rx="2.461" ry="1.309"/>
		</g>
	</g>
</g>
<g>
</g>
<g>
</g>
<g>
</g>
<g>
</g>
<g>
</g>
<g>
</g>
<g>
</g>
<g>
</g>
<g>
</g>
<g>
</g>
<g>
</g>
<g>
</g>
<g>
</g>
<g>
</g>
<g>
</g>
</svg>
