<?xml version="1.0" encoding="iso-8859-1"?>
<!-- Generator: Adobe Illustrator 19.0.0, SVG Export Plug-In . SVG Version: 6.00 Build 0)  -->
<svg version="1.1" id="Layer_1" xmlns="http://www.w3.org/2000/svg" xmlns:xlink="http://www.w3.org/1999/xlink" x="0px" y="0px"
	 viewBox="0 0 105.799 105.799" style="enable-background:new 0 0 105.799 105.799;" xml:space="preserve">
<g>
	<g>
		<g>
			<path style="fill:#A8D626;" d="M20.894,25.197c0,0-13.462-9.904-14.306-23.7l5.821,0.049
				C12.41,1.546,14.321,18.104,20.894,25.197z"/>
		</g>
		<g>
			<path d="M20.893,26.799c-0.31,0-0.621-0.147-0.888-0.344C19.432,26.036,5.967,15.945,5.091,1.614
				C5.066,1.199,5.214,0.779,5.5,0.477C5.786,0.175,6.149-0.03,6.601,0.004l5.821,0.045c0.757,0.007,1.391,0.575,1.477,1.327
				c0.019,0.159,1.908,15.937,7.969,22.665c0.333,0.275,0.545,0.742,0.545,1.208c0,0.828-0.671,1.551-1.5,1.551
				C20.907,26.799,20.9,26.799,20.893,26.799z M8.247,3.01c0.733,5.28,3.382,9.932,6.146,13.504
				c-1.961-5.416-2.93-10.991-3.295-13.479L8.247,3.01z"/>
		</g>
	</g>
	<g>
		<g>
			<path style="fill:#9D2690;" d="M9.376,30.435c0,0,10.593,67.786,54.515,72.976c43.924,5.187,39.153-34.747,28.077-42.983
				c-12.682-9.429-34.326-5.937-41.998-9.933C41.537,46.1,24.599,24.901,24.599,24.901L9.376,30.435z"/>
		</g>
		<g>
			<path d="M71.356,105.799c-0.003,0-0.004,0-0.007,0c-2.408,0-4.977-0.372-7.634-0.687c-18.504-2.186-34.035-15.88-44.914-39.399
				C10.669,48.131,7.921,30.891,7.894,30.719l-0.19-1.246l17.395-6.336l0.672,0.834c0.167,0.21,16.836,20.998,24.893,25.196
				c2.706,1.409,7.624,1.819,13.318,2.295c9.255,0.772,20.772,1.733,28.881,7.762c6.244,4.644,10.477,18.355,6.795,29.474
				C97.569,95.006,91.115,105.799,71.356,105.799z M11.074,31.415c1.7,9.066,13.902,66.101,52.993,70.72
				c2.541,0.3,4.991,0.665,7.283,0.665c0,0,0.005,0,0.006,0c16.98,0,23.213-8.277,25.454-15.044
				c3.238-9.782-0.425-22.067-5.737-26.018c-7.421-5.519-18.466-6.493-27.34-7.235c-6.018-0.502-11.214-0.963-14.456-2.651
				c-7.741-4.033-21.875-21.104-25.172-25.161L11.074,31.415z"/>
		</g>
	</g>
	<g>
		<g>
			<path style="fill:#A8D626;" d="M33.641,27.877l-6.013-3.767l0,0c-2.164-5.31-8.419-7.614-13.04-5.916
				c-4.619,1.701-7.812,7.614-6.019,13.064l-2.3,6.676l8.289-3.536l2.673,8.608l3.361-8.364l7.978,4.197l-3.535-8.289L33.641,27.877
				z"/>
		</g>
		<g>
			<path d="M17.231,44.799c-0.02,0-0.04,0-0.06,0c-0.635,0-1.184-0.596-1.372-1.201l-2.18-7.096l-6.761,2.849
				c-0.545,0.231-1.177,0.104-1.611-0.301c-0.434-0.404-0.589-1.035-0.395-1.596l2.142-6.222
				c-1.602-5.776,1.609-12.431,7.077-14.444c1.161-0.427,2.411-0.645,3.716-0.645c4.743,0,9.112,2.771,11.033,6.942l5.618,3.519
				c0.497,0.312,0.767,0.884,0.691,1.465c-0.075,0.581-0.482,1.065-1.042,1.239l-7.021,2.18l2.884,6.761
				c0.249,0.584,0.103,1.262-0.363,1.691c-0.467,0.432-1.156,0.521-1.715,0.225l-6.507-3.423l-2.742,6.969
				C18.394,44.282,17.841,44.799,17.231,44.799z M14.558,32.898c0.215,0,0.43,0.046,0.63,0.139c0.385,0.178,0.677,0.511,0.803,0.916
				l1.422,4.579l1.788-4.45c0.158-0.394,0.476-0.702,0.874-0.849c0.399-0.147,0.839-0.117,1.216,0.081l4.245,2.233l-1.881-4.408
				c-0.166-0.391-0.16-0.833,0.019-1.219c0.178-0.385,0.511-0.677,0.916-0.803l5.486-1.704l-3.243-2.031
				c-0.267-0.167-0.475-0.414-0.593-0.705c-1.558-3.822-5.368-5.533-8.454-5.533c-0.951,0-1.853,0.154-2.68,0.459
				c-3.709,1.365-6.722,6.297-5.112,11.188c0.102,0.312,0.101,0.647-0.007,0.957L8.788,35.23l5.182-2.211
				C14.158,32.938,14.358,32.898,14.558,32.898z"/>
		</g>
	</g>
</g>
<g>
</g>
<g>
</g>
<g>
</g>
<g>
</g>
<g>
</g>
<g>
</g>
<g>
</g>
<g>
</g>
<g>
</g>
<g>
</g>
<g>
</g>
<g>
</g>
<g>
</g>
<g>
</g>
<g>
</g>
</svg>
