<?xml version="1.0" encoding="iso-8859-1"?>
<!-- Generator: Adobe Illustrator 19.0.0, SVG Export Plug-In . SVG Version: 6.00 Build 0)  -->
<svg version="1.1" id="Layer_1" xmlns="http://www.w3.org/2000/svg" xmlns:xlink="http://www.w3.org/1999/xlink" x="0px" y="0px"
	 viewBox="0 0 102.536 102.536" style="enable-background:new 0 0 102.536 102.536;" xml:space="preserve">
<g>
	<g>
		<g>
			<path style="fill:#0E4D15;" d="M58.649,33.28c0,0-3.686-19.548-14.847-27.828l2.666-3.417c0,0,13.023,8.943,15.618,30.786
				L58.649,33.28z"/>
		</g>
		<g>
			<path d="M57.439,34.955l-0.265-1.396c-0.036-0.19-3.715-19.074-14.267-26.901l-1.234-0.916L46.153,0l1.164,0.799
				c0.555,0.381,13.614,9.584,16.258,31.846l0.174,1.468L57.439,34.955z M45.899,5.202c9.005,7.622,12.886,21.879,13.927,26.407
				l0.577-0.076C58.059,15.34,49.73,6.779,46.714,4.157L45.899,5.202z"/>
		</g>
	</g>
	<g>
		<g>
			<path style="fill:#FF5A58;" d="M50.552,35.536c0,0,18.356,37.802-10.329,49.831c-28.683,12.03-13.118,19.979,4.947,13.989
				c19.043-6.314,44.671-27.82,27.09-63.82C72.26,35.536,50.552,35.536,50.552,35.536z"/>
		</g>
		<g>
			<path d="M33.34,102.536c-0.001,0-0.001,0-0.002,0c-5.896,0-9.778-1.801-10.385-4.816c-0.848-4.217,4.923-9.052,16.69-13.986
				c6.599-2.768,11.104-7.229,13.389-13.263c5.631-14.863-3.736-34.585-3.831-34.783l-1.038-2.151h25.035l0.411,0.842
				c6.91,14.149,7.912,27.272,2.976,39.006c-6.041,14.361-19.944,23.373-30.941,27.02C41.43,101.8,37.175,102.536,33.34,102.536z
				 M52.851,36.536c2.377,5.749,7.991,21.789,2.987,34.998c-2.589,6.833-7.647,11.868-15.035,14.966
				c-12.41,5.206-15.211,9.128-14.91,10.628c0.241,1.197,2.876,2.408,7.444,2.408c0.001,0,0.001,0,0.002,0
				c3.468,0,7.502-0.701,11.358-1.98c10.373-3.439,23.469-11.9,29.121-25.336c4.488-10.67,3.646-22.671-2.502-35.684
				C71.316,36.536,52.851,36.536,52.851,36.536z"/>
		</g>
	</g>
	<g>
		<g>
			<path style="fill:#A8D626;" d="M73.1,35.238L68.392,22.27c-1.866-5.144-7.748-7.73-13.135-5.774l-0.423,0.154
				c-5.389,1.956-8.244,7.712-6.377,12.854l4.707,12.971L73.1,35.238z"/>
		</g>
		<g>
			<path d="M52.266,44.396l-5.219-14.381c-1.044-2.876-0.854-6.002,0.534-8.801c1.377-2.775,3.771-4.897,6.742-5.976l0.421-0.153
				c1.36-0.493,2.771-0.743,4.197-0.743c4.887,0,9.252,2.98,10.861,7.415l5.219,14.379L52.266,44.396z M58.941,17.343
				c-1.076,0-2.143,0.19-3.172,0.563l-0.421,0.153c-2.244,0.814-4.047,2.409-5.08,4.489c-1.021,2.058-1.163,4.346-0.401,6.444
				l4.195,11.56l17.115-6.213L66.981,22.78C65.802,19.528,62.57,17.343,58.941,17.343z"/>
		</g>
	</g>
</g>
<g>
</g>
<g>
</g>
<g>
</g>
<g>
</g>
<g>
</g>
<g>
</g>
<g>
</g>
<g>
</g>
<g>
</g>
<g>
</g>
<g>
</g>
<g>
</g>
<g>
</g>
<g>
</g>
<g>
</g>
</svg>
