<?xml version="1.0" encoding="iso-8859-1"?>
<!-- Generator: Adobe Illustrator 19.0.0, SVG Export Plug-In . SVG Version: 6.00 Build 0)  -->
<svg version="1.1" id="Layer_1" xmlns="http://www.w3.org/2000/svg" xmlns:xlink="http://www.w3.org/1999/xlink" x="0px" y="0px"
	 viewBox="0 0 103.57 103.57" style="enable-background:new 0 0 103.57 103.57;" xml:space="preserve">
<g>
	<g>
		<g>
			<ellipse style="fill:#D6991D;" cx="53.79" cy="44.118" rx="48.28" ry="39.634"/>
		</g>
		<g>
			<path d="M53.79,85.253c-27.449,0-49.78-18.452-49.78-41.134S26.341,2.984,53.79,2.984s49.78,18.453,49.78,41.135
				S81.239,85.253,53.79,85.253z M53.79,5.984c-25.794,0-46.78,17.107-46.78,38.135c0,21.027,20.985,38.134,46.78,38.134
				s46.78-17.106,46.78-38.134S79.584,5.984,53.79,5.984z"/>
		</g>
	</g>
	<g>
		<g>
			<circle style="fill:#A8D626;" cx="34.016" cy="66.572" r="32.516"/>
		</g>
		<g>
			<path d="M34.016,100.587C15.259,100.587,0,85.327,0,66.572c0-18.756,15.259-34.016,34.016-34.016
				c18.756,0,34.016,15.26,34.016,34.016C68.032,85.327,52.772,100.587,34.016,100.587z M34.016,35.556
				C16.913,35.556,3,49.47,3,66.572c0,17.102,13.913,31.015,31.016,31.015c17.102,0,31.016-13.913,31.016-31.015
				C65.032,49.47,51.118,35.556,34.016,35.556z"/>
		</g>
	</g>
	<g>
		<g>
			<circle style="fill:#CBE67D;" cx="34.017" cy="66.572" r="22.796"/>
		</g>
		<g>
			<path d="M34.016,90.867c-13.396,0-24.295-10.899-24.295-24.296c0-13.396,10.899-24.296,24.295-24.296
				c13.397,0,24.297,10.899,24.297,24.296S47.413,90.867,34.016,90.867z M34.016,45.277c-11.742,0-21.295,9.554-21.295,21.296
				s9.553,21.296,21.295,21.296c11.743,0,21.297-9.554,21.297-21.296C55.313,54.829,45.759,45.277,34.016,45.277z"/>
		</g>
	</g>
	<g>
		<g>
			<ellipse cx="34.541" cy="57.026" rx="1.276" ry="1.688"/>
		</g>
	</g>
	<g>
		<g>
			<ellipse transform="matrix(0.7073 -0.7069 0.7069 0.7073 -30.5098 46.6986)" cx="41.138" cy="60.193" rx="1.687" ry="1.276"/>
		</g>
	</g>
	<g>
		<g>
			<path d="M43.562,68.372c-0.931,0-1.686-0.572-1.686-1.275c0-0.705,0.756-1.275,1.686-1.275c0.934,0,1.688,0.57,1.688,1.275
				S44.495,68.372,43.562,68.372z"/>
		</g>
	</g>
	<g>
		<g>
			<ellipse transform="matrix(0.7068 0.7074 -0.7074 0.7068 63.9747 -6.9694)" cx="40.395" cy="73.693" rx="1.687" ry="1.275"/>
		</g>
	</g>
	<g>
		<g>
			<ellipse cx="33.489" cy="76.117" rx="1.276" ry="1.686"/>
		</g>
	</g>
	<g>
		<g>
			<ellipse transform="matrix(-0.7064 0.7078 -0.7078 -0.7064 97.5208 105.449)" cx="26.891" cy="72.95" rx="1.687" ry="1.276"/>
		</g>
	</g>
	<g>
		<g>
			<ellipse cx="24.469" cy="66.046" rx="1.685" ry="1.275"/>
		</g>
	</g>
	<g>
		<g>
			<ellipse transform="matrix(-0.7072 -0.707 0.707 -0.7072 5.1503 121.031)" cx="27.636" cy="59.449" rx="1.687" ry="1.275"/>
		</g>
	</g>
	<g style="opacity:0.2;">
		<g>
			<circle style="fill:#FFFFFF;" cx="34.296" cy="66.826" r="11.244"/>
		</g>
	</g>
</g>
<g>
</g>
<g>
</g>
<g>
</g>
<g>
</g>
<g>
</g>
<g>
</g>
<g>
</g>
<g>
</g>
<g>
</g>
<g>
</g>
<g>
</g>
<g>
</g>
<g>
</g>
<g>
</g>
<g>
</g>
</svg>
