<?xml version="1.0" encoding="iso-8859-1"?>
<!-- Generator: Adobe Illustrator 19.0.0, SVG Export Plug-In . SVG Version: 6.00 Build 0)  -->
<svg version="1.1" id="Layer_1" xmlns="http://www.w3.org/2000/svg" xmlns:xlink="http://www.w3.org/1999/xlink" x="0px" y="0px"
	 viewBox="0 0 128.33 128.33" style="enable-background:new 0 0 128.33 128.33;" xml:space="preserve">
<g>
	<g>
		<g>
			<g>
				<g>
					<path style="fill:#A0C944;" d="M72.503,34.847c0.11-0.44-1.431-20.69,4.953-33.346c0,0-12.986,6.823-20.8,27.953"/>
				</g>
			</g>
			<g>
				<g>
					<path d="M72.504,36.347c-0.12,0-0.243-0.015-0.365-0.045c-0.729-0.183-1.198-0.869-1.13-1.594
						c0.001-0.133-0.008-0.394-0.019-0.769c-0.412-13.344,1.176-22.298,3.106-28.161c-4.328,3.688-11.211,11.158-16.032,24.196
						c-0.288,0.777-1.149,1.176-1.928,0.887c-0.776-0.287-1.174-1.15-0.887-1.927C63.172,7.51,76.207,0.462,76.759,0.173
						c0.575-0.302,1.285-0.199,1.749,0.259c0.465,0.457,0.581,1.163,0.287,1.745c-2.486,4.93-5.339,14.426-4.808,31.669
						c0.03,0.984,0.034,1.111-0.029,1.366C73.787,35.892,73.176,36.347,72.504,36.347z"/>
				</g>
			</g>
		</g>
		<g>
			<g>
				<g>
					<path style="fill:#A0C944;" d="M52.424,40.543c0,0-9.732-23.179-21.089-27.702c0,0,18.926-1.75,32.444,17.682"/>
				</g>
			</g>
			<g>
				<g>
					<path d="M52.425,42.044c-0.586,0-1.143-0.346-1.384-0.919c-0.095-0.226-9.622-22.652-20.261-26.89
						c-0.645-0.257-1.029-0.921-0.93-1.608c0.099-0.687,0.655-1.215,1.347-1.279c0.807-0.077,19.956-1.6,33.813,18.319
						c0.473,0.68,0.306,1.615-0.375,2.088c-0.679,0.473-1.613,0.305-2.088-0.375c-5.38-7.733-12.233-12.952-20.37-15.51
						c-1.88-0.591-3.616-0.964-5.118-1.197c9.35,7.865,16.401,24.466,16.747,25.29c0.321,0.764-0.038,1.643-0.802,1.963
						C52.816,42.006,52.618,42.044,52.425,42.044z"/>
				</g>
			</g>
		</g>
		<g>
			<g>
				<g>
					<path style="fill:#A0C944;" d="M75.135,40.543c0,0,9.732-23.179,21.089-27.702c0,0-18.926-1.75-32.444,17.682"/>
				</g>
			</g>
			<g>
				<g>
					<path d="M75.134,42.044c-0.193,0-0.39-0.038-0.58-0.118c-0.764-0.32-1.123-1.2-0.802-1.963
						c0.346-0.824,7.397-17.425,16.747-25.29c-1.502,0.233-3.238,0.605-5.118,1.197c-8.137,2.559-14.99,7.777-20.37,15.51
						c-0.475,0.68-1.41,0.846-2.088,0.375c-0.681-0.473-0.848-1.408-0.375-2.088C76.405,9.746,95.554,11.271,96.361,11.348
						c0.691,0.064,1.248,0.593,1.347,1.279c0.1,0.686-0.285,1.351-0.93,1.608c-10.648,4.242-20.166,26.663-20.26,26.889
						C76.277,41.698,75.72,42.044,75.134,42.044z"/>
				</g>
			</g>
		</g>
		<g>
			<g>
				<g>
					<path style="fill:#A0C944;" d="M57.432,34.847c-0.11-0.44,1.432-20.69-4.952-33.346c0,0,12.985,6.823,20.8,27.953"/>
				</g>
			</g>
			<g>
				<g>
					<path d="M57.431,36.347c-0.672,0-1.283-0.455-1.454-1.136c-0.063-0.255-0.06-0.381-0.029-1.366
						c0.532-17.243-2.32-26.739-4.807-31.669c-0.294-0.583-0.178-1.288,0.287-1.745c0.466-0.458,1.176-0.562,1.749-0.258
						c0.552,0.289,13.586,7.337,21.51,28.76c0.287,0.777-0.11,1.64-0.887,1.927c-0.778,0.288-1.64-0.109-1.928-0.886
						c-4.843-13.096-11.719-20.55-16.04-24.218c1.935,5.862,3.526,14.823,3.113,28.183c-0.012,0.375-0.021,0.636-0.02,0.769
						c0.068,0.725-0.401,1.412-1.13,1.594C57.674,36.332,57.551,36.347,57.431,36.347z"/>
				</g>
			</g>
		</g>
	</g>
	<g>
		<g>
			<path style="fill:#D6991D;" d="M105.611,79.831c-1.286,27.026-20.888,48.048-43.773,46.959
				c-22.893-1.091-40.404-23.88-39.118-50.906c1.287-27.024,20.885-48.046,43.778-46.957
				C89.383,30.018,106.898,52.807,105.611,79.831z"/>
		</g>
	</g>
	<g>
		<g>
			<path d="M63.537,128.33c-0.589,0-1.178-0.014-1.771-0.042c-23.68-1.128-41.868-24.669-40.545-52.476
				c1.326-27.847,21.459-49.503,45.348-48.384c23.679,1.128,41.864,24.668,40.54,52.474
				C105.817,107.059,86.678,128.33,63.537,128.33z M64.795,30.387c-21.537,0-39.361,20.016-40.578,45.568
				c-1.244,26.154,15.664,48.287,37.691,49.336c22.236,1.078,40.957-19.335,42.204-45.531c1.245-26.154-15.66-48.285-37.687-49.334
				C65.88,30.4,65.338,30.387,64.795,30.387z"/>
		</g>
	</g>
	<g>
		<g>
			<g>
				<g>
					<g>
						<g>
							<path d="M76.494,125.776c0.119-0.1,0.236-0.203,0.356-0.301L24.595,93.18c0.404,1.423,0.789,2.85,1.201,4.269l46.422,28.691
								C73.451,125.402,74.976,125.248,76.494,125.776z"/>
						</g>
					</g>
				</g>
				<g>
					<g>
						<g>
							<path d="M89.887,117.055l-67.14-41.497c-0.007-0.004-0.015-0.006-0.021-0.01c0.108,1.191,0.137,2.392,0.12,3.599
								l64.238,39.704C88.03,118.277,88.963,117.676,89.887,117.055z"/>
						</g>
					</g>
				</g>
				<g>
					<g>
						<g>
							<path d="M98.51,105.905L24.913,60.417c-0.221,0.621-0.445,1.245-0.658,1.88c-0.115,0.344-0.219,0.691-0.33,1.036
								l73.109,45.188C97.525,107.643,98.011,106.763,98.51,105.905z"/>
						</g>
					</g>
				</g>
				<g>
					<g>
						<g>
							<path d="M103.576,92.836c0.021-0.082,0.059-0.147,0.082-0.227L31.924,48.27c-0.452,0.898-0.907,1.792-1.363,2.684
								l71.905,44.445C102.846,94.551,103.222,93.699,103.576,92.836z"/>
						</g>
					</g>
				</g>
				<g>
					<g>
						<g>
							<path d="M106.206,77.704l-65.77-40.648c-0.856,0.649-1.712,1.3-2.582,1.93l68.085,42.081
								C105.989,79.955,106.082,78.837,106.206,77.704z"/>
						</g>
					</g>
				</g>
				<g>
					<g>
						<g>
							<path d="M103.509,62.126c-0.387-1.046-0.681-2.087-0.922-3.137L54.845,29.48c-1.169,0.456-2.343,0.897-3.511,1.357
								l52.628,32.529C103.809,62.945,103.657,62.527,103.509,62.126z"/>
						</g>
					</g>
				</g>
			</g>
			<g>
				<g>
					<g>
						<g>
							<path d="M100.992,98.687l-51.793,25.56c0.197,0.058,0.394,0.115,0.595,0.188c0.987,0.357,1.859,0.91,2.579,1.592
								l46.975-23.181C99.828,101.428,100.394,100.05,100.992,98.687z"/>
						</g>
					</g>
				</g>
				<g>
					<g>
						<g>
							<path d="M105.96,80.604l-69.882,34.487c0.481,0.509,0.945,1.029,1.381,1.567c0.246,0.238,0.463,0.502,0.694,0.754
								l67.764-33.441C105.878,82.847,105.896,81.728,105.96,80.604z"/>
						</g>
					</g>
				</g>
				<g>
					<g>
						<g>
							<path d="M105.895,67.964c-0.408-0.77-0.764-1.592-1.099-2.42l-76.837,37.921c0.115,0.353,0.208,0.701,0.265,1.043
								c0.334,0.559,0.647,1.129,0.957,1.701l76.809-37.907C105.957,68.189,105.926,68.077,105.895,67.964z"/>
						</g>
					</g>
				</g>
				<g>
					<g>
						<g>
							<path d="M101.259,52.641c-0.308-0.146-0.603-0.329-0.883-0.546L23.593,89.987c0.337,0.956,0.639,1.921,0.918,2.893
								l77.431-38.212c-0.016-0.358,0.015-0.708,0.073-1.051C101.753,53.296,101.501,52.971,101.259,52.641z"/>
						</g>
					</g>
				</g>
				<g>
					<g>
						<g>
							<path d="M92.407,40.398L22.644,74.825c0.127,1.075,0.193,2.156,0.206,3.244l72.13-35.595
								c-0.227-0.265-0.454-0.528-0.68-0.792C93.58,41.352,92.942,40.919,92.407,40.398z"/>
						</g>
					</g>
				</g>
				<g>
					<g>
						<g>
							<path d="M78.893,31.435L25.877,57.598c-0.021,0.016-0.045,0.028-0.066,0.044c-0.361,1.335-0.855,2.645-1.324,3.988
								l57.364-28.309C80.593,32.945,79.61,32.276,78.893,31.435z"/>
						</g>
					</g>
				</g>
			</g>
		</g>
	</g>
</g>
<g>
</g>
<g>
</g>
<g>
</g>
<g>
</g>
<g>
</g>
<g>
</g>
<g>
</g>
<g>
</g>
<g>
</g>
<g>
</g>
<g>
</g>
<g>
</g>
<g>
</g>
<g>
</g>
<g>
</g>
</svg>
